<svg width="150" height="44" viewBox="0 0 150 44" fill="none" xmlns="http://www.w3.org/2000/svg">
<path d="M36.0309 23.1287C36.0417 22.3212 36.2666 21.5293 36.685 20.8261C37.1034 20.1229 37.7017 19.531 38.4247 19.1051C37.9659 18.4826 37.3606 17.97 36.6569 17.6078C35.9531 17.2456 35.1702 17.0438 34.3701 17.0184C32.6629 16.8423 31.0114 17.9869 30.1392 17.9869C29.2577 17.9869 27.9124 17.036 26.4742 17.0624C25.54 17.0901 24.6294 17.3482 23.8322 17.8114C23.035 18.2745 22.3787 18.9268 21.9279 19.7038C19.9701 22.9527 21.4361 27.7159 23.3196 30.3396C24.2567 31.6163 25.3608 33.0514 26.799 32.9986C28.2093 32.9458 28.7289 32.1445 30.4361 32.1445C32.1155 32.1445 32.6072 32.9986 34.0825 32.9722C35.5948 32.9458 36.5412 31.6779 37.4505 30.3836C38.1297 29.4693 38.6526 28.4591 39 27.3901C38.1178 27.0363 37.3654 26.4431 36.8372 25.685C36.309 24.9269 36.0285 24.0376 36.0309 23.1287Z" fill="#0A1017"/>
<path d="M32.9594 15.1737C33.7053 14.0084 34.074 12.5119 33.9876 11C33.1459 11.1218 32.3472 11.5478 31.6822 12.2298C31.0173 12.9118 30.5127 13.8225 30.2256 14.8585C30.0417 15.5541 29.9748 16.2715 30.0083 16.9997C30.5758 17.0076 31.1373 16.8472 31.6501 16.5308C32.1629 16.2144 32.6135 15.7503 32.9677 15.1737H32.9594Z" fill="#0A1017"/>
<path d="M54.95 17.06C53.32 17.06 52.4 16.29 52.36 14.9H53.25C53.3 15.82 53.98 16.26 55 16.26C56.05 16.26 56.67 15.8 56.67 15C56.67 14.19 56.1 13.8 55.02 13.8H54.32V13.07H54.97C56.02 13.07 56.49 12.64 56.49 11.87C56.49 11.13 55.88 10.74 54.99 10.74C54.01 10.74 53.39 11.22 53.34 12.02H52.45C52.5 10.79 53.52 9.94 54.98 9.94C56.49 9.94 57.38 10.69 57.38 11.79C57.38 12.71 56.92 13.2 56.24 13.38C56.9 13.54 57.56 13.99 57.56 15.06C57.56 16.25 56.53 17.06 54.95 17.06ZM60.6568 11.84C61.9568 11.84 62.7068 12.49 62.7068 13.68V17H61.9968L61.9268 16.2C61.6068 16.66 61.0968 17.06 60.2168 17.06C59.0968 17.06 58.3368 16.5 58.3368 15.57C58.3368 14.55 59.0468 13.98 60.3868 13.98H61.8868V13.63C61.8868 12.97 61.4168 12.57 60.6168 12.57C59.8968 12.57 59.4168 12.91 59.3168 13.43H58.4968C58.6168 12.43 59.4268 11.84 60.6568 11.84ZM61.8868 14.92V14.67H60.3068C59.5768 14.67 59.1668 14.94 59.1668 15.52C59.1668 16.02 59.5968 16.36 60.2768 16.36C61.2968 16.36 61.8868 15.77 61.8868 14.92ZM64.5812 17H63.7612V11.9H67.0312V12.65H64.5812V17ZM70.2765 11.84C71.6865 11.84 72.7265 12.79 72.7265 14.45C72.7265 16.01 71.6865 17.06 70.2765 17.06C69.4165 17.06 68.8365 16.71 68.5265 16.22V19H67.7065V11.9H68.4165L68.5265 12.72C68.8665 12.25 69.4165 11.84 70.2765 11.84ZM70.1965 16.33C71.2065 16.33 71.8865 15.56 71.8865 14.45C71.8865 13.34 71.2065 12.57 70.1965 12.57C69.1965 12.57 68.5165 13.34 68.5165 14.43C68.5165 15.55 69.1965 16.33 70.1965 16.33ZM74.8798 17.03L72.8898 11.9H73.7598L75.3298 15.97L76.8498 11.9H77.7198L75.3698 17.86C75.0498 18.68 74.8598 19 74.1398 19H73.1598V18.25H73.8898C74.3598 18.25 74.4398 18.13 74.6298 17.65L74.8798 17.03ZM81.3243 14.38C81.9543 14.48 82.3443 14.86 82.3443 15.53C82.3443 16.47 81.4843 17.06 80.1043 17.06C78.6543 17.06 78.0343 16.47 77.9843 15.43H78.8343C78.9543 16.04 79.2643 16.36 80.1143 16.36C80.9643 16.36 81.5043 16.05 81.5043 15.52C81.5043 14.98 81.1143 14.77 80.4743 14.77H79.6043V14.06H80.4243C81.0243 14.06 81.3843 13.84 81.3843 13.3C81.3843 12.84 80.9343 12.54 80.1643 12.54C79.3343 12.54 78.9743 12.89 78.8643 13.44H78.0143C78.0743 12.49 78.8643 11.84 80.1843 11.84C81.4743 11.84 82.2243 12.41 82.2243 13.28C82.2243 13.91 81.8543 14.27 81.3243 14.38ZM83.9734 17H83.2534V11.9H84.0534V15.76L87.0934 11.9H87.8134V17H87.0134V13.13L83.9734 17ZM91.1765 17H90.3565V12.65H88.5165V11.9H93.0165V12.65H91.1765V17ZM95.7498 17.06C94.2198 17.06 93.2198 16.01 93.2198 14.45C93.2198 12.9 94.1998 11.84 95.6398 11.84C97.0798 11.84 98.0198 12.75 98.0598 14.26C98.0598 14.37 98.0498 14.49 98.0398 14.61H94.0798V14.68C94.1098 15.65 94.7198 16.33 95.6898 16.33C96.4098 16.33 96.9698 15.95 97.1398 15.29H97.9698C97.7698 16.31 96.9298 17.06 95.7498 17.06ZM94.1298 13.93H97.1798C97.0998 13.05 96.4998 12.56 95.6498 12.56C94.8998 12.56 94.2098 13.1 94.1298 13.93ZM103.813 17H101.613V11.9H103.783C105.043 11.9 105.653 12.39 105.653 13.27C105.653 13.91 105.233 14.26 104.813 14.36C105.403 14.45 105.843 14.82 105.843 15.52C105.843 16.51 105.143 17 103.813 17ZM102.433 12.6V14.07H103.853C104.533 14.07 104.823 13.79 104.823 13.33C104.823 12.84 104.533 12.6 103.853 12.6H102.433ZM102.433 14.75V16.3H103.933C104.633 16.3 105.013 16.06 105.013 15.53C105.013 15.03 104.633 14.75 103.933 14.75H102.433Z" fill="#0A1017"/>
<path d="M54.113 33H52.328L56.258 22.5H58.313L62.228 33H60.383L59.393 30.405H55.088L54.113 33ZM57.233 24.36L55.568 28.935H58.913L57.233 24.36ZM67.2497 25.23C69.3497 25.23 70.8797 26.7 70.8797 29.16C70.8797 31.53 69.3497 33.09 67.2497 33.09C66.0647 33.09 65.2397 32.61 64.7597 31.92V36H63.1397V25.32H64.5497L64.7447 26.46C65.2547 25.785 66.0497 25.23 67.2497 25.23ZM66.9797 31.725C68.3297 31.725 69.2297 30.66 69.2297 29.16C69.2297 27.645 68.3297 26.61 66.9797 26.61C65.6297 26.61 64.7447 27.645 64.7447 29.13C64.7447 30.66 65.6297 31.725 66.9797 31.725ZM76.2878 25.23C78.3878 25.23 79.9178 26.7 79.9178 29.16C79.9178 31.53 78.3878 33.09 76.2878 33.09C75.1028 33.09 74.2778 32.61 73.7978 31.92V36H72.1778V25.32H73.5878L73.7828 26.46C74.2928 25.785 75.0878 25.23 76.2878 25.23ZM76.0178 31.725C77.3678 31.725 78.2678 30.66 78.2678 29.16C78.2678 27.645 77.3678 26.61 76.0178 26.61C74.6678 26.61 73.7828 27.645 73.7828 29.13C73.7828 30.66 74.6678 31.725 76.0178 31.725ZM84.7988 29.55L86.5388 29.58C86.6288 30.81 87.5888 31.635 89.0588 31.635C90.3038 31.635 91.2038 31.08 91.2038 30.075C91.2038 28.965 90.1088 28.725 88.4438 28.425C86.7038 28.125 85.0538 27.57 85.0538 25.485C85.0538 23.655 86.5538 22.41 88.7888 22.41C91.1888 22.41 92.6888 23.715 92.7638 25.65H91.0388C90.9038 24.585 90.0638 23.865 88.7888 23.865C87.6038 23.865 86.7788 24.375 86.7788 25.365C86.7788 26.445 87.8588 26.67 89.5088 26.955C91.2488 27.27 92.9438 27.825 92.9288 29.895C92.9288 31.785 91.3538 33.09 89.0438 33.09C86.4338 33.09 84.8588 31.65 84.7988 29.55ZM94.8373 30.915V26.745H93.5023V25.32H94.8373V23.175H96.4723V25.32H98.3473V26.745H96.4723V30.75C96.4723 31.35 96.6823 31.575 97.2973 31.575H98.4373V33H96.9373C95.4673 33 94.8373 32.31 94.8373 30.915ZM102.937 33.09C100.597 33.09 99.0217 31.515 99.0217 29.16C99.0217 26.82 100.597 25.23 102.937 25.23C105.277 25.23 106.852 26.82 106.852 29.16C106.852 31.515 105.277 33.09 102.937 33.09ZM102.937 31.71C104.302 31.71 105.202 30.645 105.202 29.16C105.202 27.675 104.302 26.61 102.937 26.61C101.572 26.61 100.687 27.675 100.687 29.16C100.687 30.645 101.572 31.71 102.937 31.71ZM112.039 25.32H112.399V26.835H111.679C110.239 26.835 109.774 27.96 109.774 29.145V33H108.154V25.32H109.594L109.774 26.475C110.164 25.83 110.779 25.32 112.039 25.32ZM116.677 33.09C114.262 33.09 112.747 31.53 112.747 29.175C112.747 26.805 114.262 25.23 116.527 25.23C118.747 25.23 120.232 26.64 120.277 28.89C120.277 29.085 120.262 29.295 120.232 29.505H114.442V29.61C114.487 30.915 115.312 31.77 116.587 31.77C117.577 31.77 118.297 31.275 118.522 30.42H120.142C119.872 31.935 118.582 33.09 116.677 33.09ZM114.502 28.32H118.597C118.462 27.18 117.667 26.535 116.542 26.535C115.507 26.535 114.622 27.225 114.502 28.32Z" fill="#0A1017"/>
</svg>
