<svg width="1042" height="1032" viewBox="0 0 1042 1032" fill="none" xmlns="http://www.w3.org/2000/svg">
    <path opacity="0.06" fill-rule="evenodd" clip-rule="evenodd" d="M791.934 128.98C709.973 154.763 615.681 194.377 535.242 235.526C401.556 303.915 291.618 372.895 214.267 430.806C187.721 450.681 165.419 468.95 147.501 485.159C148.538 484.823 149.587 484.481 150.646 484.133C232.436 457.249 366.088 397.084 561.924 290.493L609.73 378.325C412.371 485.746 272.391 549.38 181.871 579.133C138.048 593.538 99.8329 602.101 70.7368 600.267C56.5633 599.374 34.9909 595.49 18.3829 578.583C-1.00498 558.845 -2.01769 533.986 1.83852 516.566C5.3979 500.486 13.68 486.006 21.8311 474.322C30.4394 461.982 41.4118 449.249 53.9351 436.399C79.0101 410.669 113.094 381.632 154.334 350.756C237.002 288.864 351.923 216.98 489.699 146.499C574.417 103.16 673.906 61.2773 761.927 33.5886C805.864 19.767 848.185 9.08643 885.08 3.76691C919.685 -1.22234 957.932 -2.88171 988.35 9.12483C1005.07 15.7247 1022.61 27.7628 1033.16 48.3394C1043.59 68.6773 1043.52 90.2026 1039.41 108.678C1031.75 143.065 1007.04 180.876 972.492 221.537C906.188 299.569 784.037 410.102 587.415 562.656C610.549 551.699 636.513 538.899 665.558 524.04C711.846 500.361 749.071 483.42 778.457 472.438C805.957 462.162 832.677 454.67 855.28 455.789C867.105 456.375 884.887 459.646 899.629 473.578C915.739 488.801 919.369 508.16 918.747 522.318C918.17 535.415 914.056 547.048 910.325 555.517C906.355 564.528 901.25 573.417 895.865 581.766C874.943 614.197 839.876 653.44 806.86 687.709C792.226 702.899 777.468 717.649 763.673 731.108C774.183 726.353 784.09 722.265 793.132 719.185C805.558 714.952 822.358 710.399 839.764 711.869C861.055 713.667 883.228 724.837 895.078 749.02C904.361 767.964 903.804 788.462 902.071 803.368C900.17 819.729 895.627 838.446 889.353 859.064C876.759 900.455 854.874 956.847 823.618 1031.12L731.448 992.328C762.567 918.382 782.702 866.047 793.684 829.954C793.987 828.959 794.281 827.982 794.567 827.023C781.519 833.269 765.933 841.204 747.262 850.755C711.182 869.213 680.529 881.529 656.046 885.927C644.271 888.043 628.196 889.447 612.13 884.174C592.391 877.695 575.739 861.81 570.818 838.654C566.915 820.292 571.921 803.933 575.89 794.118C580.315 783.174 586.671 772.621 593.484 762.985C607.208 743.574 626.641 722.505 649.426 701.613C670.029 682.722 702.878 651.508 734.844 618.329C745 607.788 754.807 597.311 763.96 587.169C748.411 594.384 730.851 602.964 711.101 613.067C619.528 659.913 553.794 688.905 508.359 704.136C485.982 711.637 465.835 716.739 448.667 718.076C440.078 718.745 429.736 718.693 419.179 716.04C408.356 713.321 394.32 707.023 383.946 693.072C362.718 664.524 375.823 633.519 380.294 624.151C386.748 610.629 396.607 597.697 406.255 586.638C426.137 563.849 454.046 538.995 482.48 517.252C704.39 347.563 832.518 231.833 896.287 156.785C918.472 130.677 930.511 112.148 936.621 100.064C928.062 99.8014 915.865 100.362 899.351 102.743C869.707 107.017 832.987 116.066 791.934 128.98ZM819.484 513.488C819.487 513.486 819.47 513.545 819.428 513.669C819.461 513.551 819.482 513.49 819.484 513.488ZM803.061 786.107C803.062 786.106 803.067 786.157 803.073 786.264C803.062 786.162 803.059 786.109 803.061 786.107ZM668.521 831.805C668.52 831.807 668.527 831.787 668.543 831.745C668.53 831.783 668.522 831.803 668.521 831.805ZM439.633 618.433C439.634 618.432 439.685 618.431 439.781 618.435C439.68 618.436 439.632 618.434 439.633 618.433ZM470.627 667.052C470.112 668.503 469.841 668.694 470.542 667.225C470.567 667.172 470.596 667.114 470.627 667.052ZM75.6774 500.311C75.6895 500.301 75.9162 500.324 76.3212 500.409C75.8677 500.364 75.6652 500.321 75.6774 500.311Z" fill="#EBEDFD"/>
</svg>
