<svg width="150" height="44" viewBox="0 0 150 44" fill="none" xmlns="http://www.w3.org/2000/svg">
<rect width="150" height="44" rx="8" fill="#0A1017"/>
<g clip-path="url(#clip0_6415_9835)">
<path fill-rule="evenodd" clip-rule="evenodd" d="M44.0547 29.112C44.0572 29.1276 44.0597 29.1433 44.0623 29.159L44.0602 29.1603C44.0917 29.3648 44.1186 29.5705 44.1412 29.7777H15.8604C15.883 29.5705 15.9099 29.3648 15.9419 29.1603L15.9444 29.1437C15.9524 29.0924 15.9605 29.0407 15.9692 28.9895C16.0284 28.6367 16.1003 28.2895 16.1847 27.9463C16.333 27.3468 16.5196 26.7617 16.7423 26.1951C16.9305 25.7151 17.1448 25.2483 17.3826 24.7958C17.6876 24.214 18.033 23.6569 18.4145 23.1264C18.8825 22.4764 19.4039 21.8673 19.9732 21.306C20.2589 21.0237 20.5572 20.7537 20.8669 20.496C21.3837 20.066 21.9311 19.673 22.5067 19.3182C22.5057 19.3162 22.5044 19.3141 22.5032 19.312C22.5019 19.31 22.5007 19.3079 22.4996 19.3059C22.357 19.0616 22.2143 18.8175 22.0716 18.5734C21.9288 18.3291 21.786 18.0848 21.6433 17.8403L21.6012 17.7683C21.3363 17.3152 21.0713 16.862 20.806 16.4089C20.6064 16.0664 20.406 15.7233 20.2051 15.3808C20.1577 15.2995 20.1207 15.2154 20.0921 15.1292C20.0144 14.8893 20.011 14.6371 20.0736 14.4026C20.0888 14.3445 20.1089 14.2877 20.1325 14.2324C20.1556 14.177 20.1833 14.123 20.2144 14.071C20.3219 13.8933 20.4732 13.7388 20.6648 13.626C20.8345 13.5256 21.024 13.4661 21.2181 13.4497C21.2996 13.4428 21.3816 13.4435 21.4627 13.4517C21.5303 13.4586 21.5971 13.4709 21.6635 13.488C21.8996 13.5501 22.1189 13.6787 22.2895 13.8646C22.3509 13.9316 22.4059 14.0054 22.4538 14.0868C22.6534 14.4293 22.8538 14.7724 23.0546 15.1149L23.8916 16.5463C24.0342 16.7906 24.177 17.0349 24.3199 17.2792C24.4628 17.5233 24.6056 17.7675 24.7482 18.0119C24.7654 18.0419 24.783 18.0717 24.8006 18.1017C24.8123 18.1217 24.8241 18.1416 24.8357 18.1616C24.997 18.0987 25.1596 18.0385 25.3239 17.9818C26.7457 17.491 28.2696 17.2176 29.8556 17.2019C29.9048 17.2012 29.9531 17.2012 30.0018 17.2012C31.7858 17.2012 33.4925 17.5265 35.0655 18.1213C35.1032 18.1355 35.1405 18.1504 35.1781 18.1652L35.1949 18.1718C35.216 18.1352 35.2374 18.0988 35.2586 18.0625C35.2686 18.0454 35.2787 18.0283 35.2886 18.0112C35.4311 17.7671 35.5738 17.5231 35.7165 17.2791C35.8596 17.0346 36.0025 16.7902 36.1453 16.5456L36.9822 15.1142L36.9882 15.1041C37.1862 14.7649 37.3846 14.4252 37.5831 14.0861C37.6305 14.0048 37.686 13.9309 37.7473 13.8639C37.918 13.678 38.1372 13.5495 38.3734 13.4873C38.4398 13.4702 38.5066 13.4579 38.5738 13.451C38.6553 13.4428 38.7372 13.4422 38.8187 13.449C39.0128 13.4661 39.2023 13.5256 39.3716 13.6253C39.5633 13.7382 39.7157 13.8927 39.8225 14.0704C39.8535 14.1223 39.8808 14.1763 39.9044 14.2317C39.9279 14.2871 39.9473 14.3438 39.9632 14.4019C40.0258 14.6364 40.0225 14.8886 39.9443 15.1286C39.9162 15.2147 39.8787 15.2987 39.8313 15.3801C39.6317 15.7226 39.4313 16.0658 39.2305 16.4082L38.3935 17.8396C38.2508 18.0842 38.1077 18.3287 37.9648 18.5732C37.8221 18.8171 37.6793 19.0611 37.5369 19.3052C37.5341 19.3096 37.5316 19.3143 37.5291 19.3189C37.5266 19.3235 37.524 19.3281 37.5213 19.3326C38.144 19.7181 38.7351 20.1495 39.2885 20.6231C39.5439 20.8412 39.7914 21.0688 40.0304 21.3047C40.6002 21.866 41.122 22.475 41.5892 23.125C41.9703 23.6555 42.3152 24.2133 42.6211 24.7944C42.859 25.2469 43.0732 25.7138 43.2615 26.1937C43.4841 26.7604 43.6706 27.3455 43.819 27.945C43.9034 28.2881 43.9761 28.636 44.0345 28.9881C44.0415 29.0293 44.0481 29.0705 44.0547 29.112ZM24.6786 25.2747C25.1511 24.5834 25.0674 23.7207 24.492 23.3478C23.9166 22.9748 23.0678 23.233 22.5954 23.9243C22.1234 24.6156 22.2071 25.4783 22.782 25.8511C23.3574 26.2241 24.2066 25.9659 24.6786 25.2747ZM37.2467 25.8511C37.7901 25.4783 37.8691 24.6155 37.4229 23.9243C36.9771 23.233 36.1751 22.9749 35.6321 23.3478C35.0886 23.7207 35.0095 24.5834 35.4558 25.2746C35.9016 25.9659 36.7036 26.2241 37.2467 25.8511Z" fill="#34A853"/>
</g>
<path d="M55.69 17.06C53.68 17.06 52.42 15.64 52.42 13.5C52.42 11.38 53.73 9.94 55.76 9.94C57.31 9.94 58.44 10.84 58.7 12.29H57.78C57.51 11.32 56.77 10.74 55.72 10.74C54.25 10.74 53.31 11.88 53.31 13.5C53.31 15.11 54.21 16.26 55.68 16.26C56.76 16.26 57.51 15.69 57.77 14.71H58.69C58.43 16.16 57.27 17.06 55.69 17.06ZM60.4405 17H59.6205V11.9H60.4405V14.03H61.5305L63.1205 11.9H64.0705L62.2105 14.35L64.2305 17H63.2405L61.5405 14.78H60.4405V17ZM66.7701 11.84C68.0701 11.84 68.8201 12.49 68.8201 13.68V17H68.1101L68.0401 16.2C67.7201 16.66 67.2101 17.06 66.3301 17.06C65.2101 17.06 64.4501 16.5 64.4501 15.57C64.4501 14.55 65.1601 13.98 66.5001 13.98H68.0001V13.63C68.0001 12.97 67.5301 12.57 66.7301 12.57C66.0101 12.57 65.5301 12.91 65.4301 13.43H64.6101C64.7301 12.43 65.5401 11.84 66.7701 11.84ZM68.0001 14.92V14.67H66.4201C65.6901 14.67 65.2801 14.94 65.2801 15.52C65.2801 16.02 65.7101 16.36 66.3901 16.36C67.4101 16.36 68.0001 15.77 68.0001 14.92ZM72.9963 14.19V11.9H73.8163V17H72.9963V14.95C72.6063 15.21 72.0763 15.34 71.5763 15.34C70.3363 15.34 69.5763 14.8 69.5763 13.49V11.9H70.3963V13.35C70.3963 14.28 70.8463 14.6 71.7363 14.6C72.2263 14.6 72.6563 14.48 72.9963 14.19ZM77.063 11.84C78.363 11.84 79.113 12.49 79.113 13.68V17H78.403L78.333 16.2C78.013 16.66 77.503 17.06 76.623 17.06C75.503 17.06 74.743 16.5 74.743 15.57C74.743 14.55 75.453 13.98 76.793 13.98H78.293V13.63C78.293 12.97 77.823 12.57 77.023 12.57C76.303 12.57 75.823 12.91 75.723 13.43H74.903C75.023 12.43 75.833 11.84 77.063 11.84ZM78.293 14.92V14.67H76.713C75.983 14.67 75.573 14.94 75.573 15.52C75.573 16.02 76.003 16.36 76.683 16.36C77.703 16.36 78.293 15.77 78.293 14.92ZM82.4274 11.32C81.4674 11.32 80.9874 10.79 80.9674 9.95H81.6474C81.6474 10.44 81.8674 10.74 82.4374 10.74C83.0074 10.74 83.2474 10.44 83.2474 9.95H83.9274C83.9074 10.79 83.3974 11.32 82.4274 11.32ZM80.8874 17H80.1674V11.9H80.9674V15.76L84.0074 11.9H84.7274V17H83.9274V13.13L80.8874 17ZM88.0905 17H87.2705V12.65H85.4305V11.9H89.9305V12.65H88.0905V17ZM92.6639 17.06C91.1339 17.06 90.1339 16.01 90.1339 14.45C90.1339 12.9 91.1139 11.84 92.5539 11.84C93.9939 11.84 94.9339 12.75 94.9739 14.26C94.9739 14.37 94.9639 14.49 94.9539 14.61H90.9939V14.68C91.0239 15.65 91.6339 16.33 92.6039 16.33C93.3239 16.33 93.8839 15.95 94.0539 15.29H94.8839C94.6839 16.31 93.8439 17.06 92.6639 17.06ZM91.0439 13.93H94.0939C94.0139 13.05 93.4139 12.56 92.5639 12.56C91.8139 12.56 91.1239 13.1 91.0439 13.93Z" fill="white"/>
<path d="M53.905 33H52.12L56.05 22.5H58.105L62.02 33H60.175L59.185 30.405H54.88L53.905 33ZM57.025 24.36L55.36 28.935H58.705L57.025 24.36ZM63.0967 33V22.5H67.2367C69.4267 22.5 70.8667 23.805 70.8667 25.845C70.8667 27.87 69.4267 29.19 67.2367 29.19H64.8217V33H63.0967ZM67.1017 24H64.8217V27.69H67.0867C68.3167 27.69 69.1117 26.97 69.1117 25.845C69.1117 24.705 68.3317 24 67.1017 24ZM72.1934 33V22.5H73.9184V27.915L78.7334 22.5H80.8334L76.9784 26.91L81.1184 33H79.0334L75.7334 28.185L73.9184 30.225V33H72.1934ZM86.3109 29.4H81.2109V28.065H86.3109V29.4ZM93.4448 36H91.8548V33.06C89.1998 32.97 87.5198 31.485 87.5198 29.16C87.5198 26.865 89.2148 25.365 91.8548 25.26V22.74H93.4448V25.26C96.0998 25.365 97.7798 26.835 97.7798 29.16C97.7798 31.455 96.0848 32.97 93.4448 33.06V36ZM91.8698 31.695V26.625C90.1898 26.685 89.1548 27.63 89.1548 29.16C89.1548 30.705 90.1898 31.635 91.8698 31.695ZM93.4298 26.625V31.695C95.1248 31.635 96.1298 30.705 96.1298 29.16C96.1298 27.63 95.1248 26.685 93.4298 26.625ZM102.399 25.23C104.439 25.23 105.609 26.205 105.609 28.02V33H104.199L104.064 31.905C103.539 32.595 102.804 33.09 101.589 33.09C99.9091 33.09 98.7841 32.265 98.7841 30.84C98.7841 29.265 99.9241 28.38 102.084 28.38H104.004V27.915C104.004 27.06 103.389 26.535 102.324 26.535C101.364 26.535 100.719 26.985 100.599 27.66H99.0091C99.1741 26.16 100.464 25.23 102.399 25.23ZM101.859 31.83C103.209 31.83 103.989 31.035 104.004 29.85V29.58H101.994C100.989 29.58 100.434 29.955 100.434 30.735C100.434 31.38 100.974 31.83 101.859 31.83ZM110.622 24.51C109.152 24.51 108.342 23.775 108.312 22.395H109.557C109.557 23.085 109.857 23.505 110.637 23.505C111.432 23.505 111.747 23.085 111.747 22.395H112.992C112.962 23.775 112.092 24.51 110.622 24.51ZM108.492 33H107.082V25.32H108.657V30.645L112.797 25.32H114.222V33H112.647V27.66L108.492 33ZM115.588 33H115.063V31.575H115.333C116.128 31.575 116.443 31.08 116.443 29.01V25.32H122.548V33H120.928V26.745H117.973V29.07C117.973 32.115 117.193 33 115.588 33Z" fill="white"/>
<defs>
<clipPath id="clip0_6415_9835">
<rect width="28" height="28" fill="white" transform="translate(16 8)"/>
</clipPath>
</defs>
</svg>
