<svg width="150" height="44" viewBox="0 0 150 44" fill="none" xmlns="http://www.w3.org/2000/svg">
<path d="M19.4249 10.3754C19.153 10.6643 19 11.1148 19 11.6842V32.3191C19 32.897 19.153 33.3474 19.4249 33.6279L19.4929 33.6959L31.0257 22.1376V21.8572L19.4929 10.3074L19.4249 10.3754Z" fill="url(#paint0_linear_5947_25645)"/>
<path d="M34.8754 25.9959L31.0255 22.1375V21.8571L34.8754 18.0071L34.9604 18.0496L39.5157 20.6502C40.816 21.3811 40.816 22.6049 39.5157 23.3443L34.9604 25.9364L34.8754 25.9959Z" fill="url(#paint1_linear_5947_25645)"/>
<path d="M34.9606 25.9366L31.0257 22.0017L19.425 33.6279C19.8499 34.0869 20.5638 34.1378 21.3627 33.6874L34.9606 25.9366Z" fill="url(#paint2_linear_5947_25645)"/>
<path d="M34.9606 18.0667L21.3626 10.3159C20.5552 9.85696 19.8498 9.91645 19.4164 10.3754L31.0257 22.0016L34.9606 18.0667Z" fill="url(#paint3_linear_5947_25645)"/>
<path d="M58.4 10V16.2H59.26V18.43H58.39V17H53.04V18.43H52.17V16.2H52.83C53.3 15.78 53.57 15.13 53.57 13.08V10H58.4ZM53.84 16.2H57.53V10.74H54.39V13.19C54.39 14.82 54.22 15.64 53.84 16.2ZM62.2245 17.06C60.7345 17.06 59.6945 16 59.6945 14.45C59.6945 12.9 60.7345 11.84 62.2245 11.84C63.7145 11.84 64.7545 12.9 64.7545 14.45C64.7545 16 63.7145 17.06 62.2245 17.06ZM62.2245 16.33C63.2345 16.33 63.9145 15.54 63.9145 14.45C63.9145 13.36 63.2345 12.57 62.2245 12.57C61.2145 12.57 60.5345 13.36 60.5345 14.45C60.5345 15.54 61.2145 16.33 62.2245 16.33ZM67.9848 17.06C66.4948 17.06 65.5148 16.05 65.5148 14.46C65.5148 12.9 66.5248 11.84 68.0048 11.84C69.2548 11.84 70.0448 12.54 70.2548 13.66H69.3948C69.2448 12.98 68.7448 12.57 67.9948 12.57C67.0148 12.57 66.3548 13.35 66.3548 14.46C66.3548 15.57 67.0148 16.33 67.9948 16.33C68.7248 16.33 69.2248 15.91 69.3848 15.26H70.2548C70.0548 16.36 69.2248 17.06 67.9848 17.06ZM73.1882 17H72.3682V12.65H70.5282V11.9H75.0282V12.65H73.1882V17ZM77.2724 17.03L75.2824 11.9H76.1524L77.7224 15.97L79.2424 11.9H80.1124L77.7624 17.86C77.4424 18.68 77.2524 19 76.5324 19H75.5524V18.25H76.2824C76.7524 18.25 76.8324 18.13 77.0224 17.65L77.2724 17.03ZM81.5441 17H80.7241V11.9H85.1341V17H84.3141V12.65H81.5441V17ZM89.9414 14.03V11.9H90.7614V17H89.9414V14.78H87.0714V17H86.2514V11.9H87.0714V14.03H89.9414ZM94.2362 17.06C92.7462 17.06 91.7062 16 91.7062 14.45C91.7062 12.9 92.7462 11.84 94.2362 11.84C95.7262 11.84 96.7662 12.9 96.7662 14.45C96.7662 16 95.7262 17.06 94.2362 17.06ZM94.2362 16.33C95.2462 16.33 95.9262 15.54 95.9262 14.45C95.9262 13.36 95.2462 12.57 94.2362 12.57C93.2262 12.57 92.5462 13.36 92.5462 14.45C92.5462 15.54 93.2262 16.33 94.2362 16.33ZM102.524 17H100.324V11.9H102.494C103.754 11.9 104.364 12.39 104.364 13.27C104.364 13.91 103.944 14.26 103.524 14.36C104.114 14.45 104.554 14.82 104.554 15.52C104.554 16.51 103.854 17 102.524 17ZM101.144 12.6V14.07H102.564C103.244 14.07 103.534 13.79 103.534 13.33C103.534 12.84 103.244 12.6 102.564 12.6H101.144ZM101.144 14.75V16.3H102.644C103.344 16.3 103.724 16.06 103.724 15.53C103.724 15.03 103.344 14.75 102.644 14.75H101.144Z" fill="#0A1017"/>
<path d="M57.7241 33.09C54.7841 33.09 52.7591 30.945 52.7591 27.75C52.7591 24.555 54.7391 22.41 57.8591 22.41C60.2891 22.41 62.0591 23.85 62.3741 26.07H60.5891C60.2741 24.735 59.2691 23.925 57.8141 23.925C55.8191 23.925 54.5291 25.5 54.5291 27.75C54.5291 30 55.7891 31.575 57.7991 31.575C59.4191 31.575 60.7241 30.66 60.8141 28.965V28.71H57.9041V27.255H62.4641V33H61.1291L60.9791 31.59C60.4691 32.34 59.3891 33.09 57.7241 33.09ZM67.8498 33.09C65.5098 33.09 63.9348 31.515 63.9348 29.16C63.9348 26.82 65.5098 25.23 67.8498 25.23C70.1898 25.23 71.7648 26.82 71.7648 29.16C71.7648 31.515 70.1898 33.09 67.8498 33.09ZM67.8498 31.71C69.2148 31.71 70.1148 30.645 70.1148 29.16C70.1148 27.675 69.2148 26.61 67.8498 26.61C66.4848 26.61 65.5998 27.675 65.5998 29.16C65.5998 30.645 66.4848 31.71 67.8498 31.71ZM76.6975 33.09C74.3575 33.09 72.7825 31.515 72.7825 29.16C72.7825 26.82 74.3575 25.23 76.6975 25.23C79.0375 25.23 80.6125 26.82 80.6125 29.16C80.6125 31.515 79.0375 33.09 76.6975 33.09ZM76.6975 31.71C78.0625 31.71 78.9625 30.645 78.9625 29.16C78.9625 27.675 78.0625 26.61 76.6975 26.61C75.3325 26.61 74.4475 27.675 74.4475 29.16C74.4475 30.645 75.3325 31.71 76.6975 31.71ZM87.7801 26.52L87.9601 25.32H89.3701V32.685C89.3701 34.77 88.2001 36.09 85.4401 36.09C83.4001 36.09 81.9751 35.145 81.8251 33.42H83.4751C83.6701 34.275 84.4201 34.77 85.5601 34.77C86.9701 34.77 87.7651 34.095 87.7651 32.625V31.77C87.2551 32.535 86.4601 33.03 85.2601 33.03C83.1751 33.03 81.6301 31.575 81.6301 29.13C81.6301 26.775 83.1751 25.23 85.2601 25.23C86.4601 25.23 87.2851 25.755 87.7801 26.52ZM85.5301 31.665C86.8801 31.665 87.7651 30.63 87.7651 29.16C87.7651 27.645 86.8801 26.595 85.5301 26.595C84.1801 26.595 83.2951 27.645 83.2951 29.13C83.2951 30.63 84.1801 31.665 85.5301 31.665ZM90.9532 33V22.5H92.5732V33H90.9532ZM97.8062 33.09C95.3912 33.09 93.8762 31.53 93.8762 29.175C93.8762 26.805 95.3912 25.23 97.6562 25.23C99.8762 25.23 101.361 26.64 101.406 28.89C101.406 29.085 101.391 29.295 101.361 29.505H95.5712V29.61C95.6162 30.915 96.4412 31.77 97.7162 31.77C98.7062 31.77 99.4262 31.275 99.6512 30.42H101.271C101.001 31.935 99.7112 33.09 97.8062 33.09ZM95.6312 28.32H99.7262C99.5912 27.18 98.7962 26.535 97.6712 26.535C96.6362 26.535 95.7512 27.225 95.6312 28.32ZM106.719 33V22.5H110.859C113.049 22.5 114.489 23.805 114.489 25.845C114.489 27.87 113.049 29.19 110.859 29.19H108.444V33H106.719ZM110.724 24H108.444V27.69H110.709C111.939 27.69 112.734 26.97 112.734 25.845C112.734 24.705 111.954 24 110.724 24ZM115.65 33V22.5H117.27V33H115.65ZM122.173 25.23C124.213 25.23 125.383 26.205 125.383 28.02V33H123.973L123.838 31.905C123.313 32.595 122.578 33.09 121.363 33.09C119.683 33.09 118.558 32.265 118.558 30.84C118.558 29.265 119.698 28.38 121.858 28.38H123.778V27.915C123.778 27.06 123.163 26.535 122.098 26.535C121.138 26.535 120.493 26.985 120.373 27.66H118.783C118.948 26.16 120.238 25.23 122.173 25.23ZM121.633 31.83C122.983 31.83 123.763 31.035 123.778 29.85V29.58H121.768C120.763 29.58 120.208 29.955 120.208 30.735C120.208 31.38 120.748 31.83 121.633 31.83ZM129.077 33.045L126.092 25.32H127.817L129.962 31.155L132.047 25.32H133.772L130.292 34.2C129.812 35.445 129.482 36 128.357 36H126.617V34.575H127.757C128.387 34.575 128.537 34.425 128.777 33.795L129.077 33.045Z" fill="#0A1017"/>
<defs>
<linearGradient id="paint0_linear_5947_25645" x1="30.005" y1="11.4658" x2="14.3444" y2="27.0932" gradientUnits="userSpaceOnUse">
<stop stop-color="#00A0FF"/>
<stop offset="0.007" stop-color="#00A1FF"/>
<stop offset="0.26" stop-color="#00BEFF"/>
<stop offset="0.512" stop-color="#00D2FF"/>
<stop offset="0.76" stop-color="#00DFFF"/>
<stop offset="1" stop-color="#00E3FF"/>
</linearGradient>
<linearGradient id="paint1_linear_5947_25645" x1="41.2112" y1="22.0015" x2="18.6786" y2="22.0015" gradientUnits="userSpaceOnUse">
<stop stop-color="#FFE000"/>
<stop offset="0.409" stop-color="#FFBD00"/>
<stop offset="0.775" stop-color="#FFA500"/>
<stop offset="1" stop-color="#FF9C00"/>
</linearGradient>
<linearGradient id="paint2_linear_5947_25645" x1="32.8241" y1="24.1434" x2="11.5875" y2="45.3358" gradientUnits="userSpaceOnUse">
<stop stop-color="#FF3A44"/>
<stop offset="1" stop-color="#C31162"/>
</linearGradient>
<linearGradient id="paint3_linear_5947_25645" x1="16.5005" y1="3.50247" x2="25.9842" y2="12.9658" gradientUnits="userSpaceOnUse">
<stop stop-color="#32A071"/>
<stop offset="0.069" stop-color="#2DA771"/>
<stop offset="0.476" stop-color="#15CF74"/>
<stop offset="0.801" stop-color="#06E775"/>
<stop offset="1" stop-color="#00F076"/>
</linearGradient>
</defs>
</svg>
