<svg width="200" height="24" viewBox="0 0 200 24" fill="none" xmlns="http://www.w3.org/2000/svg">
<g clip-path="url(#clip0_5918_24704)">
<path d="M58.6648 22.4688L60.6519 7.14446L64.355 7.62617L62.3679 22.9505L58.6648 22.4688Z" fill="#0D1141"/>
<path d="M58.1831 2.80909C58.1831 1.45428 59.2368 0.400543 60.5916 0.400543C61.9766 0.400543 63.0303 1.45428 63.0303 2.80909C63.0303 4.194 61.9766 5.24774 60.5916 5.24774C59.2368 5.24774 58.1831 4.194 58.1831 2.80909Z" fill="#0D1141"/>
<path d="M167.395 7.38532V22.529H171.128V7.38532H167.395Z" fill="#0D1141"/>
<path d="M169.262 0.400543C167.907 0.400543 166.853 1.45428 166.853 2.80909C166.853 4.194 167.907 5.24774 169.262 5.24774C170.647 5.24774 171.701 4.194 171.701 2.80909C171.701 1.45428 170.647 0.400543 169.262 0.400543Z" fill="#0D1141"/>
<path fill-rule="evenodd" clip-rule="evenodd" d="M180.871 23.071C176.324 23.071 173.073 19.6689 173.073 14.9421C173.073 10.2455 176.324 6.8434 180.81 6.8434C186.049 6.8434 188.849 11.3594 188.187 16.0862H176.836C176.957 18.4345 178.613 20.1506 180.901 20.1506C182.707 20.1506 184.212 19.127 184.724 17.5915L187.916 18.0732C187.313 20.8732 184.544 23.071 180.871 23.071ZM176.866 13.2862H184.574C184.574 11.2691 183.038 9.64333 180.81 9.64333C178.733 9.64333 177.137 11.1186 176.866 13.2862Z" fill="#0D1141"/>
<path d="M190.271 22.529V7.38532H194.004L193.913 11.5401C194.576 8.01756 197.075 6.84339 199.634 7.35521V11.0583C196.713 10.6368 194.004 11.9615 194.004 16.0862V22.529H190.271Z" fill="#0D1141"/>
<path d="M156.502 22.529V7.38532H160.235L160.144 11.5401C160.807 8.01756 163.306 6.84339 165.865 7.35521V11.0583C162.944 10.6368 160.235 11.9615 160.235 16.0862V22.529H156.502Z" fill="#0D1141"/>
<path d="M147.055 19.8796C145.189 19.8796 144.105 18.4947 144.105 16.1464V7.38532H140.372V16.8991C140.372 20.5119 142.539 22.8903 145.761 22.8903C147.928 22.8903 149.524 21.8968 150.367 20.2108L150.307 22.529H154.04V7.38532H150.307V16.2367C150.096 18.5549 148.952 19.8796 147.055 19.8796Z" fill="#0D1141"/>
<path fill-rule="evenodd" clip-rule="evenodd" d="M130.625 22.9806C126.018 22.9806 122.706 19.6388 122.706 14.9421C122.706 10.2756 126.018 6.93372 130.625 6.93372C135.201 6.93372 138.512 10.2756 138.512 14.9421C138.512 19.6388 135.201 22.9806 130.625 22.9806ZM126.47 14.9421C126.47 17.8023 128.156 19.8194 130.625 19.8194C133.063 19.8194 134.749 17.8023 134.749 14.9421C134.749 12.1121 133.063 10.0949 130.625 10.0949C128.156 10.0949 126.47 12.1121 126.47 14.9421Z" fill="#0D1141"/>
<path d="M100.12 11.9917C100.12 18.4345 104.696 23.1312 110.958 23.1312C116.407 23.1312 120.682 19.4581 121.074 14.4604L117.22 14.1593C116.859 17.3206 114.209 19.6388 110.958 19.6388C106.984 19.6388 104.094 16.3872 104.094 11.9917C104.094 7.56596 106.984 4.31442 110.958 4.31442C114.179 4.31442 116.799 6.51222 117.16 9.5229L121.014 9.19172C120.652 4.37464 116.407 0.852143 110.958 0.852143C104.696 0.852143 100.12 5.5488 100.12 11.9917Z" fill="#0D1141"/>
<path fill-rule="evenodd" clip-rule="evenodd" d="M89.1451 22.8903C85.0807 22.8903 82.1904 19.6087 82.1904 14.9421C82.1904 10.3057 85.0807 7.02403 89.1451 7.02403C91.2526 7.02403 92.9386 7.89713 94.0826 9.46268V1.45428H97.8159V22.529H94.0826V20.4517C92.9386 22.0172 91.2526 22.8903 89.1451 22.8903ZM85.9538 14.9421C85.9538 17.7722 87.7301 19.8194 90.1386 19.8194C92.5773 19.8194 94.2934 17.8324 94.2934 14.9421C94.2934 12.082 92.5773 10.0949 90.1386 10.0949C87.7301 10.0949 85.9538 12.1422 85.9538 14.9421Z" fill="#0D1141"/>
<path d="M66.3987 7.38532V22.529H70.132V14.4303C70.132 11.6304 71.3362 10.0347 73.4738 10.0347C75.4609 10.0347 76.5748 11.4196 76.5748 13.768V22.529H80.3081V13.1959C80.3081 9.46268 78.1103 7.02403 74.8286 7.02403C72.39 7.02403 70.704 8.37884 70.0417 10.6067L70.132 7.38532H66.3987Z" fill="#0D1141"/>
<path d="M43.2344 1.45428V22.529H47.1483V13.7077H56.4513V10.667H47.1483V4.55528H57.0534V1.45428H43.2344Z" fill="#0D1141"/>
<g clip-path="url(#clip1_5918_24704)">
<path d="M14.5945 20.7851L18.1742 18.674C12.8405 19.0351 10.6475 18.1232 10.4639 16.8381C10.1885 14.9106 14.5026 13.3502 19.8264 12.2487C5.83267 11.9486 0.917851 11.698 0.550746 8.94432C-0.465777 1.3194 33.4111 -2.07035 33.9619 3.43697C34.1455 5.27271 32.4932 7.10852 20.9278 8.57714L20.7442 4.90557C26.068 4.35484 29.1889 3.80412 29.1889 3.80412C20.7443 3.43696 10.4639 4.90558 5.14014 8.02641C18.7249 8.57714 25.7009 8.76075 25.7009 11.698C25.7009 13.5338 22.2129 15.186 16.1549 16.1039C16.1549 16.1039 20.731 15.9131 21.754 17.2971C23.3144 19.4083 16.8892 23.447 16.8892 23.447L14.5945 20.7851Z" fill="#4833F5"/>
</g>
</g>
<defs>
<clipPath id="clip0_5918_24704">
<rect width="200" height="24" fill="white"/>
</clipPath>
<clipPath id="clip1_5918_24704">
<rect width="33.7783" height="23.3144" fill="white" transform="translate(0.367188 0.316101)"/>
</clipPath>
</defs>
</svg>
