<svg width="76" height="53" viewBox="0 0 76 53" fill="none" xmlns="http://www.w3.org/2000/svg">
<g clip-path="url(#clip0_5918_24842)">
<g clip-path="url(#clip1_5918_24842)">
<path d="M31.8783 46.102L39.88 41.383C27.9576 42.1904 23.0557 40.1519 22.6453 37.2795C22.0298 32.9708 31.673 29.4829 43.5731 27.0208C12.2932 26.3499 1.30723 25.7897 0.486651 19.6346C-1.78556 2.59075 73.9387 -4.98629 75.1699 7.3241C75.5803 11.4275 71.887 15.5311 46.0352 18.8138L45.6247 10.6068C57.5248 9.3758 64.5008 8.14478 64.5008 8.14478C45.6248 7.32409 22.6453 10.6069 10.7452 17.5828C41.111 18.8138 56.7043 19.2242 56.7043 25.7898C56.7043 29.8933 48.9077 33.5864 35.3662 35.6382C35.3662 35.6382 45.5952 35.2118 47.8818 38.3054C51.3698 43.0244 37.0076 52.0521 37.0076 52.0521L31.8783 46.102Z" fill="white"/>
</g>
</g>
<defs>
<clipPath id="clip0_5918_24842">
<rect width="76" height="53" fill="white"/>
</clipPath>
<clipPath id="clip1_5918_24842">
<rect width="75.504" height="52.1142" fill="white" transform="translate(0.0756836 0.3479)"/>
</clipPath>
</defs>
</svg>
