<svg width="359" height="53" viewBox="0 0 359 53" fill="none" xmlns="http://www.w3.org/2000/svg">
<g clip-path="url(#clip0_5918_24845)">
<path d="M35.8948 51.1195L40.4481 16.0039L48.9338 17.1077L44.3805 52.2233L35.8948 51.1195Z" fill="white"/>
<path d="M34.791 6.06944C34.791 2.96492 37.2056 0.550293 40.3101 0.550293C43.4836 0.550293 45.8983 2.96492 45.8983 6.06944C45.8983 9.24295 43.4836 11.6576 40.3101 11.6576C37.2056 11.6576 34.791 9.24295 34.791 6.06944Z" fill="white"/>
<path d="M285.049 16.5558V51.2575H293.604V16.5558H285.049Z" fill="white"/>
<path d="M289.327 0.550293C286.222 0.550293 283.808 2.96492 283.808 6.06944C283.808 9.24295 286.222 11.6576 289.327 11.6576C292.5 11.6576 294.915 9.24295 294.915 6.06944C294.915 2.96492 292.5 0.550293 289.327 0.550293Z" fill="white"/>
<path fill-rule="evenodd" clip-rule="evenodd" d="M315.928 52.4993C305.511 52.4993 298.06 44.7035 298.06 33.8722C298.06 23.1098 305.511 15.314 315.79 15.314C327.794 15.314 334.21 25.6624 332.693 36.4938H306.684C306.959 41.8749 310.754 45.8073 315.997 45.8073C320.136 45.8073 323.586 43.4617 324.759 39.9432L332.072 41.0471C330.692 47.4631 324.345 52.4993 315.928 52.4993ZM306.753 30.0778H324.414C324.414 25.4555 320.895 21.73 315.79 21.73C311.03 21.73 307.373 25.1105 306.753 30.0778Z" fill="white"/>
<path d="M337.468 51.2575V16.5558H346.023L345.816 26.0764C347.333 18.0046 353.059 15.314 358.924 16.4868V24.9725C352.232 24.0067 346.023 27.0422 346.023 36.4938V51.2575H337.468Z" fill="white"/>
<path d="M260.087 51.2575V16.5558H268.641L268.434 26.0764C269.952 18.0046 275.678 15.314 281.542 16.4868V24.9725C274.85 24.0067 268.641 27.0422 268.641 36.4938V51.2575H260.087Z" fill="white"/>
<path d="M238.441 45.1864C234.163 45.1864 231.68 42.0129 231.68 36.6317V16.5558H223.125V38.3565C223.125 46.6352 228.092 52.0854 235.474 52.0854C240.441 52.0854 244.098 49.8087 246.029 45.9453L245.891 51.2575H254.446V16.5558H245.891V36.8387C245.409 42.1509 242.787 45.1864 238.441 45.1864Z" fill="white"/>
<path fill-rule="evenodd" clip-rule="evenodd" d="M200.79 52.2923C190.234 52.2923 182.645 44.6345 182.645 33.8722C182.645 23.1788 190.234 15.521 200.79 15.521C211.276 15.521 218.865 23.1788 218.865 33.8722C218.865 44.6345 211.276 52.2923 200.79 52.2923ZM191.269 33.8722C191.269 40.4262 195.133 45.0484 200.79 45.0484C206.378 45.0484 210.241 40.4262 210.241 33.8722C210.241 27.3872 206.378 22.7649 200.79 22.7649C195.133 22.7649 191.269 27.3872 191.269 33.8722Z" fill="white"/>
<path d="M130.888 27.1112C130.888 41.8749 141.374 52.6373 155.724 52.6373C168.211 52.6373 178.008 44.2206 178.904 32.7683L170.074 32.0784C169.246 39.3223 163.175 44.6345 155.724 44.6345C146.617 44.6345 139.994 37.1836 139.994 27.1112C139.994 16.9698 146.617 9.51891 155.724 9.51891C163.106 9.51891 169.108 14.5551 169.936 21.4541L178.766 20.6952C177.939 9.65689 168.211 1.58513 155.724 1.58513C141.374 1.58513 130.888 12.3475 130.888 27.1112Z" fill="white"/>
<path fill-rule="evenodd" clip-rule="evenodd" d="M105.74 52.0854C96.4265 52.0854 89.8036 44.5655 89.8036 33.8722C89.8036 23.2478 96.4265 15.728 105.74 15.728C110.569 15.728 114.433 17.7286 117.054 21.3161V2.96492H125.609V51.2575H117.054V46.4972C114.433 50.0847 110.569 52.0854 105.74 52.0854ZM98.4272 33.8722C98.4272 40.3572 102.498 45.0484 108.017 45.0484C113.605 45.0484 117.537 40.4951 117.537 33.8722C117.537 27.3182 113.605 22.7649 108.017 22.7649C102.498 22.7649 98.4272 27.4561 98.4272 33.8722Z" fill="white"/>
<path d="M53.617 16.5558V51.2575H62.1717V32.6993C62.1717 26.2833 64.9313 22.6269 69.8295 22.6269C74.3828 22.6269 76.9354 25.8004 76.9354 31.1816V51.2575H85.4901V29.8708C85.4901 21.3161 80.4539 15.728 72.934 15.728C67.3459 15.728 63.4825 18.8325 61.9647 23.9377L62.1717 16.5558H53.617Z" fill="white"/>
<path d="M0.536133 2.96492V51.2575H9.50475V31.0436H30.8225V24.0757H9.50475V10.0708H32.2023V2.96492H0.536133Z" fill="white"/>
</g>
<defs>
<clipPath id="clip0_5918_24845">
<rect width="359" height="53" fill="white"/>
</clipPath>
</defs>
</svg>
