<svg width="48" height="48" viewBox="0 0 48 48" fill="none" xmlns="http://www.w3.org/2000/svg">
<path d="M21 19L35 32C37 34 34.1331 37 32.1331 35L19 21" fill="#E2DEFF"/>
<path d="M21 19L35 32C37 34 34.1331 37 32.1331 35L19 21" stroke="#4833F5" stroke-width="2" stroke-miterlimit="10"/>
<path d="M19.0121 12.992L13.0088 18.9954L17.011 22.9976L23.0143 16.9942L19.0121 12.992Z" fill="#E2DEFF" stroke="#4833F5" stroke-width="2" stroke-miterlimit="10"/>
<path d="M18.7193 11.2846L20.2968 9.70711C20.6873 9.31658 21.3205 9.31658 21.711 9.70711L26.2973 14.2934C26.6876 14.6837 26.6879 15.3165 26.2978 15.7071L24.7213 17.2859C24.3309 17.6769 23.6973 17.6771 23.3066 17.2864L18.7192 12.6988C18.3287 12.3083 18.3287 11.6752 18.7193 11.2846Z" fill="#E2DEFF" stroke="#4833F5" stroke-width="2" stroke-miterlimit="10"/>
<path d="M9.71055 20.2919L11.289 18.7091C11.6793 18.3176 12.3133 18.3172 12.7042 18.7081L17.2893 23.2935C17.6796 23.6838 17.6799 24.3165 17.2899 24.7071L15.717 26.2823C15.327 26.6729 14.6942 26.6736 14.3033 26.2838L9.71254 21.7061C9.32144 21.3161 9.32055 20.683 9.71055 20.2919Z" fill="#E2DEFF" stroke="#4833F5" stroke-width="2" stroke-miterlimit="10"/>
<path d="M33 2L46 15V33L33 46H15L2 33V15L15 2H33Z" stroke="#ACAFFF" stroke-width="2" stroke-miterlimit="10"/>
</svg>
