<svg width="48" height="48" viewBox="0 0 48 48" fill="none" xmlns="http://www.w3.org/2000/svg">
<path d="M5 39H8L25.06 41L42 32V31C40 29 35 30 26 33L19 32V30L21 29C25 29 27 27 27 26L26 25C19 25 15 25 8 29H5" fill="#E2DEFF"/>
<path d="M5 39H8L25.06 41L42 32V31C40 29 35 30 26 33L19 32V30L21 29C25 29 27 27 27 26L26 25C19 25 15 25 8 29H5" stroke="#4833F5" stroke-width="2" stroke-miterlimit="10"/>
<path d="M37 25C39.2091 25 41 23.2091 41 21C41 18.7909 39.2091 17 37 17C34.7909 17 33 18.7909 33 21C33 23.2091 34.7909 25 37 25Z" stroke="#ACAFFF" stroke-width="2" stroke-miterlimit="10"/>
<path d="M30 15C32.2091 15 34 13.2091 34 11C34 8.79086 32.2091 7 30 7C27.7909 7 26 8.79086 26 11C26 13.2091 27.7909 15 30 15Z" stroke="#ACAFFF" stroke-width="2" stroke-miterlimit="10"/>
</svg>
