<svg width="48" height="48" viewBox="0 0 48 48" fill="none" xmlns="http://www.w3.org/2000/svg">
<path d="M19 21C19 24 16 27 12 27C8 27 5 24 5 21H19Z" fill="#E2DEFF" stroke="#4833F5" stroke-width="2" stroke-miterlimit="10"/>
<path d="M24 4V39" stroke="#4833F5" stroke-width="2" stroke-miterlimit="10"/>
<path d="M5 21V20L11 5H13L19 20V21" stroke="#4833F5" stroke-width="2" stroke-miterlimit="10"/>
<path d="M35 43H13V42L15 39H33L35 42V43Z" stroke="#4833F5" stroke-width="2" stroke-miterlimit="10"/>
<path d="M43 29C43 32 40 35 36 35C32 35 29 32 29 29H43Z" fill="#E2DEFF" stroke="#4833F5" stroke-width="2" stroke-miterlimit="10"/>
<path d="M29 29V28L35 13H37L43 28V29" stroke="#4833F5" stroke-width="2" stroke-miterlimit="10"/>
<path d="M12 5L36 13" stroke="#4833F5" stroke-width="2" stroke-miterlimit="10"/>
</svg>
