<svg width="48" height="48" viewBox="0 0 48 48" fill="none" xmlns="http://www.w3.org/2000/svg">
<g clip-path="url(#clip0_5918_24803)">
<path d="M4 28H6C7 29 10 30 14 30H19C21.55 26.6 22.8 19.38 22.98 15.04C22.99 14.77 22.89 14.5 22.7 14.31C22.51 14.12 22.25 14 21.98 14H14V13C15.55 10.53 16.88 7.66 16 5H15C10 10 7 14 4 14" fill="#E2DEFF"/>
<path d="M4 28H6C7 29 10 30 14 30H19C21.55 26.6 22.8 19.38 22.98 15.04C22.99 14.77 22.89 14.5 22.7 14.31C22.51 14.12 22.25 14 21.98 14H14V13C15.55 10.53 16.88 7.66 16 5H15C10 10 7 14 4 14" stroke="#4833F5" stroke-width="2" stroke-miterlimit="10"/>
<path d="M43.9802 20H41.9802C40.9802 19 37.9802 18 33.9802 18H28.9802C26.4302 21.4 25.1802 28.62 25.0002 32.96C24.9902 33.23 25.0902 33.5 25.2802 33.69C25.4702 33.88 25.7302 34 26.0002 34H33.9802V35C32.4302 37.47 31.1002 40.34 31.9802 43H32.9802C37.9802 38 40.9802 34 43.9802 34" stroke="#ACAFFF" stroke-width="2" stroke-miterlimit="10"/>
</g>
<defs>
<clipPath id="clip0_5918_24803">
<rect width="39.98" height="40" fill="white" transform="translate(4 4)"/>
</clipPath>
</defs>
</svg>
