<svg width="48" height="48" viewBox="0 0 48 48" fill="none" xmlns="http://www.w3.org/2000/svg">
<path d="M11 18C12.3807 18 13.5 16.8807 13.5 15.5C13.5 14.1193 12.3807 13 11 13C9.61929 13 8.5 14.1193 8.5 15.5C8.5 16.8807 9.61929 18 11 18Z" stroke="#ACAFFF" stroke-width="2" stroke-miterlimit="10"/>
<path d="M6 26V25C6 22.6 7.67 21 11 21C14.33 21 16 22.6 16 25V26" stroke="#ACAFFF" stroke-width="2" stroke-miterlimit="10"/>
<path d="M37 18C38.3807 18 39.5 16.8807 39.5 15.5C39.5 14.1193 38.3807 13 37 13C35.6193 13 34.5 14.1193 34.5 15.5C34.5 16.8807 35.6193 18 37 18Z" stroke="#ACAFFF" stroke-width="2" stroke-miterlimit="10"/>
<path d="M32 26V25C32 22.6 33.67 21 37 21C40.33 21 42 22.6 42 25V26" stroke="#ACAFFF" stroke-width="2" stroke-miterlimit="10"/>
<path d="M24 23C26.7614 23 29 20.5376 29 17.5C29 14.4624 26.7614 12 24 12C21.2386 12 19 14.4624 19 17.5C19 20.5376 21.2386 23 24 23Z" fill="#E2DEFF" stroke="#4833F5" stroke-width="2" stroke-miterlimit="10"/>
<path d="M15 40.0001V33.3501C15 24.8801 33 24.8801 33 33.3501V40.0001" fill="#E2DEFF"/>
<path d="M15 40.0001V33.3501C15 24.8801 33 24.8801 33 33.3501V40.0001" stroke="#4833F5" stroke-width="2" stroke-miterlimit="10"/>
</svg>
