<svg width="120" height="120" viewBox="0 0 120 120" fill="none" xmlns="http://www.w3.org/2000/svg">
<path d="M36.65 77.4751L34.15 79.9751L14.15 97.4751C9.15001 102.475 16.65 109.975 21.65 104.975L39.15 84.9751L41.65 82.4751L36.65 77.4751Z" fill="#E2DEFF" stroke="#4833F5" stroke-width="4" stroke-miterlimit="10"/>
<path d="M74.15 75.4251C65.45 76.4251 57.325 73.1751 51.65 67.4751C41.65 57.4751 39.15 39.9751 54.15 24.9751C69.15 9.97513 87.85 8.75013 99.15 19.9751C108.025 28.8001 109.125 42.3001 101.875 54.9751" stroke="#4833F5" stroke-width="4" stroke-miterlimit="10"/>
<path d="M36.65 77.4748C41.85 72.2748 44.35 64.3998 44.15 53.7998" stroke="#4833F5" stroke-width="4" stroke-miterlimit="10"/>
<path d="M41.65 82.475C46.85 77.275 54.725 74.775 65.325 74.975" stroke="#4833F5" stroke-width="4" stroke-miterlimit="10"/>
<path d="M91.65 82.4751C98.5536 82.4751 104.15 76.8787 104.15 69.9751C104.15 63.0715 98.5536 57.4751 91.65 57.4751C84.7465 57.4751 79.15 63.0715 79.15 69.9751C79.15 76.8787 84.7465 82.4751 91.65 82.4751Z" fill="#E2DEFF" stroke="#4833F5" stroke-width="4" stroke-miterlimit="10"/>
</svg>
