<svg width="77" height="78" viewBox="0 0 77 78" fill="none" xmlns="http://www.w3.org/2000/svg">
<g clip-path="url(#clip0_5985_316)">
<path d="M21.5312 57.2742L44.0915 63.3192" stroke="#ACAFFF" stroke-width="2.0761" stroke-miterlimit="10"/>
<path d="M24.0379 57.9459C28.4697 56.4467 29.4772 52.6866 30.4847 48.9266" stroke="#ACAFFF" stroke-width="2.0761" stroke-miterlimit="10"/>
<path d="M41.5846 62.6475C38.4962 59.1333 39.5037 55.3733 40.5112 51.6133" stroke="#ACAFFF" stroke-width="2.0761" stroke-miterlimit="10"/>
<path d="M66.7899 23.7279L21.6694 11.6378C20.9772 11.4524 20.2657 11.8631 20.0802 12.5554L12.0202 42.6357C11.8347 43.3279 12.2455 44.0394 12.9377 44.2249L58.0583 56.3149C58.7505 56.5004 59.462 56.0896 59.6474 55.3974L67.7075 25.317C67.8929 24.6248 67.4821 23.9133 66.7899 23.7279Z" fill="white" stroke="#8678FF" stroke-width="2.0761" stroke-miterlimit="10"/>
<path d="M13.0273 38.8757L60.6546 51.6374" stroke="#8678FF" stroke-width="2.0761" stroke-miterlimit="10"/>
</g>
<defs>
<clipPath id="clip0_5985_316">
<rect width="62.283" height="62.283" fill="white" transform="translate(16.5 0.849396) rotate(15)"/>
</clipPath>
</defs>
</svg>
