<svg width="120" height="120" viewBox="0 0 120 120" fill="none" xmlns="http://www.w3.org/2000/svg">
<g clip-path="url(#clip0_5907_24259)">
<path d="M39.925 43.1V35H54.925V43.1" fill="#E2DEFF"/>
<path d="M39.925 43.1V35H54.925V43.1" stroke="#4833F5" stroke-width="4" stroke-miterlimit="10"/>
<path d="M77.425 84.9999C77.425 68.3249 97.425 68.3249 97.425 84.9999C97.425 101.675 77.425 101.675 77.425 84.9999Z" fill="white" stroke="#4833F5" stroke-width="4" stroke-miterlimit="10"/>
<path d="M57.425 22.5C87.425 22.5 87.425 35 87.425 67.5" stroke="#ACAFFF" stroke-width="4" stroke-miterlimit="10"/>
<path d="M42.425 30V17.5H52.425V30" stroke="#ACAFFF" stroke-width="4" stroke-miterlimit="10"/>
<path d="M54.925 95V97.5C62.425 97.5 62.425 102.5 62.425 105H32.425C32.425 102.5 32.425 97.5 39.925 97.5V95C39.925 95 -3.875 42.5 47.425 42.5C98.825 42.5 54.925 95 54.925 95Z" fill="white" stroke="#4833F5" stroke-width="4" stroke-miterlimit="10"/>
</g>
<defs>
<clipPath id="clip0_5907_24259">
<rect width="79.925" height="92.5" fill="white" transform="translate(20 15)"/>
</clipPath>
</defs>
</svg>
